<svg version="1.1" id="Layer_1" xmlns="http://www.w3.org/2000/svg" xmlns:xlink="http://www.w3.org/1999/xlink" x="0px"
	y="0px" width="100%" viewBox="0 0 295 255" enable-background="new 0 0 295 255" xml:space="preserve">
	<path fill="transparent" opacity="1.000000" stroke="none" d="
M171.000000,256.000000 
	C114.000008,256.000000 57.500015,256.000000 1.000015,256.000000 
	C1.000010,171.000015 1.000010,86.000031 1.000005,1.000038 
	C99.333305,1.000025 197.666611,1.000025 295.999939,1.000013 
	C295.999939,85.999962 295.999939,170.999924 295.999969,255.999939 
	C254.500000,256.000000 213.000000,256.000000 171.000000,256.000000 
M51.207668,215.861862 
	C63.563831,225.823105 77.573517,232.333450 93.703156,236.212128 
	C106.315697,238.159882 118.867950,240.794037 131.553696,241.908417 
	C155.829697,244.040924 180.028503,242.538376 204.113419,238.789444 
	C207.678238,242.409912 215.886063,239.802277 219.620270,233.666840 
	C220.242706,233.440613 220.862717,233.207397 221.487946,232.989182 
	C254.803864,221.361221 276.039520,199.148605 280.723755,163.440079 
	C284.362701,135.699722 280.112335,108.700523 270.282410,82.562416 
	C260.004669,55.233639 240.540054,37.421101 213.348404,27.586283 
	C187.590530,18.270052 160.960968,17.258379 133.124451,18.991587 
	C124.419617,20.342228 115.714790,21.692869 106.215096,22.982906 
	C56.348076,34.855045 33.058090,65.139557 24.783165,115.751419 
	C21.710230,133.686371 20.644417,151.672897 24.294546,169.633011 
	C27.137226,183.620163 32.449627,196.529144 42.733471,207.757584 
	C45.452965,210.266113 48.172459,212.774628 51.207668,215.861862 
z" />
	<path fill="#2C353D" opacity="1.000000" stroke="none" d="
M204.011047,238.050812 
	C180.028503,242.538376 155.829697,244.040924 131.553696,241.908417 
	C118.867950,240.794037 106.315697,238.159882 93.352516,235.665955 
	C93.015717,230.529160 96.129189,229.287903 99.867950,229.048157 
	C103.077896,228.842316 106.311501,229.005508 109.368233,229.005508 
	C109.627113,226.135361 109.813141,224.072891 110.427979,221.976410 
	C146.629547,226.875870 182.121124,226.641174 217.323730,216.404358 
	C220.340988,216.383316 223.334152,216.713867 225.774567,215.705978 
	C228.553543,214.558289 233.669296,214.836258 232.319260,208.988708 
	C245.370667,200.994339 254.659836,190.272888 259.643280,176.091431 
	C264.600128,161.985550 265.451477,147.304642 263.381470,132.728058 
	C261.999573,122.997231 258.511566,113.565506 255.955902,103.639145 
	C254.571899,100.644905 253.407028,97.874809 251.789230,95.400917 
	C243.456421,82.658554 233.159317,72.644180 216.542648,70.991470 
	C200.327850,69.589142 187.751343,80.557373 185.168259,96.560539 
	C183.780151,105.160446 184.390213,114.082886 183.809708,122.894669 
	C182.979706,122.732430 182.438644,122.535309 181.703323,122.200394 
	C181.509048,122.062607 181.039246,122.141296 180.801804,122.056213 
	C180.398468,121.943596 180.232574,121.916054 179.969116,121.664314 
	C179.625687,121.164894 179.326080,121.080574 178.731369,121.042389 
	C178.018829,120.616531 177.547653,120.335426 176.896347,119.741943 
	C165.774567,113.446198 153.920151,112.148125 142.076691,114.672813 
	C134.143036,116.364037 126.684731,120.285149 119.018639,122.771912 
	C121.294914,110.511551 121.237999,98.857056 116.067535,87.700279 
	C113.266968,81.657234 109.039932,76.763626 102.918678,73.879547 
	C89.190018,67.411201 76.967163,71.294876 65.702545,79.871056 
	C53.945419,88.822189 47.943100,101.544853 43.025570,115.060432 
	C41.753311,113.191116 40.988293,111.332565 39.966461,109.627960 
	C39.077274,108.144630 38.091965,105.955345 36.798126,105.670090 
	C35.155056,105.307846 32.680481,106.038750 31.415247,107.214157 
	C28.988525,109.468567 27.161558,112.368576 25.085768,115.000740 
	C33.058090,65.139557 56.348076,34.855045 106.816284,23.350559 
	C107.801582,24.030819 108.181999,24.611149 108.570335,24.616507 
	C116.369453,24.724142 124.182442,25.047426 131.963333,24.689833 
	C135.355270,24.533949 135.589188,21.840778 134.017471,19.133150 
	C160.960968,17.258379 187.590530,18.270052 213.348404,27.586283 
	C240.540054,37.421101 260.004669,55.233639 270.282410,82.562416 
	C280.112335,108.700523 284.362701,135.699722 280.723755,163.440079 
	C276.039520,199.148605 254.803864,221.361221 221.487946,232.989182 
	C220.862717,233.207397 220.242706,233.440613 218.920059,233.849640 
	C213.483582,235.371887 208.747314,236.711349 204.011047,238.050812 
z" />
	<path fill="#2B373C" opacity="1.000000" stroke="none" d="
M24.934467,115.376083 
	C27.161558,112.368576 28.988525,109.468567 31.415247,107.214157 
	C32.680481,106.038750 35.155056,105.307846 36.798126,105.670090 
	C38.091965,105.955345 39.077274,108.144630 39.966461,109.627960 
	C40.988293,111.332565 41.753311,113.191116 42.983082,115.455231 
	C42.386795,121.143402 40.998268,126.322807 40.563164,131.581116 
	C38.588486,155.445206 39.488571,178.675247 57.099792,198.043777 
	C57.836411,202.336258 58.511581,202.864044 61.473816,201.764816 
	C64.846481,203.988373 67.900711,206.072327 71.133072,208.450287 
	C77.133682,211.496857 82.767334,214.809235 88.828644,216.853683 
	C95.685211,219.166367 102.925652,220.340958 109.999168,222.010422 
	C109.813141,224.072891 109.627113,226.135361 109.368233,229.005508 
	C106.311501,229.005508 103.077896,228.842316 99.867950,229.048157 
	C96.129189,229.287903 93.015717,230.529160 93.000938,235.503357 
	C77.573517,232.333450 63.563831,225.823105 51.074142,215.186615 
	C48.106758,212.045486 45.272900,209.579605 42.439041,207.113724 
	C32.449627,196.529144 27.137226,183.620163 24.294546,169.633011 
	C20.644417,151.672897 21.710230,133.686371 24.934467,115.376083 
z" />
	<path fill="#313445" opacity="1.000000" stroke="none" d="
M133.570953,19.062368 
	C135.589188,21.840778 135.355270,24.533949 131.963333,24.689833 
	C124.182442,25.047426 116.369453,24.724142 108.570335,24.616507 
	C108.181999,24.611149 107.801582,24.030819 107.213715,23.380863 
	C115.714790,21.692869 124.419617,20.342228 133.570953,19.062368 
z" />
	<path fill="#2F393E" opacity="1.000000" stroke="none" d="
M42.586258,207.435654 
	C45.272900,209.579605 48.106758,212.045486 50.916286,214.897247 
	C48.172459,212.774628 45.452965,210.266113 42.586258,207.435654 
z" />
	<path fill="#FCFEEF" opacity="1.000000" stroke="none" d="
M70.954941,208.156281 
	C67.900711,206.072327 64.846481,203.988373 61.340485,201.480118 
	C59.635941,199.922729 58.383152,198.789642 57.130367,197.656555 
	C39.488571,178.675247 38.588486,155.445206 40.563164,131.581116 
	C40.998268,126.322807 42.386795,121.143402 43.378773,115.532867 
	C47.943100,101.544853 53.945419,88.822189 65.702545,79.871056 
	C76.967163,71.294876 89.190018,67.411201 102.918678,73.879547 
	C109.039932,76.763626 113.266968,81.657234 116.067535,87.700279 
	C121.237999,98.857056 121.294914,110.511551 118.711517,122.877884 
	C117.048279,124.866844 115.776741,126.398933 114.330902,127.743599 
	C110.022095,131.750885 109.737160,133.113083 113.803047,136.975937 
	C121.723259,144.500671 129.870178,151.786774 138.053375,159.449493 
	C139.100906,160.521591 140.018295,161.315903 141.086700,162.404846 
	C144.432388,166.499084 147.627045,170.298676 150.900223,174.191666 
	C166.259811,159.464096 180.185715,146.111221 194.419052,132.463562 
	C190.769424,129.067352 187.434052,125.963570 184.098663,122.859787 
	C184.390213,114.082886 183.780151,105.160446 185.168259,96.560539 
	C187.751343,80.557373 200.327850,69.589142 216.610413,71.318283 
	C223.964447,78.455139 229.310776,86.087753 231.482727,95.345444 
	C221.628494,88.649605 213.161926,89.841057 206.341843,99.017395 
	C208.211197,100.087631 210.040466,101.134903 211.904617,102.120544 
	C211.939514,102.058914 211.824646,102.141815 211.977722,102.423050 
	C213.070053,103.182617 214.009338,103.660942 215.143509,104.438416 
	C216.306442,105.478119 217.274475,106.218666 218.849503,107.423561 
	C212.431427,109.226562 206.801590,110.808121 200.094925,112.692192 
	C201.093887,117.958138 201.403625,123.315025 203.185333,128.126907 
	C205.994186,135.712860 211.546722,141.132294 220.028519,141.566223 
	C227.918625,141.969894 233.346832,137.467468 236.944107,130.647461 
	C237.248795,130.069778 237.673447,129.555344 238.329590,129.308365 
	C238.418121,134.709610 238.130081,139.812408 238.038559,144.918732 
	C237.820755,157.070419 233.021973,167.758652 226.056458,177.123230 
	C212.779968,194.972427 193.720688,204.368347 172.762894,209.718246 
	C152.395676,214.917358 131.449478,215.223465 110.588493,213.848755 
	C100.409248,213.177948 90.326073,211.043549 80.200867,209.561691 
	C77.116402,209.110275 74.036781,208.625687 70.954941,208.156281 
M97.596031,133.544540 
	C104.363403,125.453194 104.310364,116.358200 101.445251,106.111626 
	C99.923782,103.370140 98.735611,100.366539 96.822083,97.933388 
	C89.292816,88.359520 76.591675,88.857002 69.527351,98.961746 
	C73.569153,101.654411 77.613007,104.348442 82.169624,107.384079 
	C75.539085,109.236282 69.832062,110.830505 64.104012,112.430611 
	C63.102539,119.882469 64.563232,126.550591 68.456566,132.627960 
	C75.748169,144.009903 90.622803,144.714508 97.596031,133.544540 
z" />
	<path fill="#E3E4D1" opacity="1.000000" stroke="none" d="
M71.133072,208.450287 
	C74.036781,208.625687 77.116402,209.110275 80.200867,209.561691 
	C90.326073,211.043549 100.409248,213.177948 110.588493,213.848755 
	C131.449478,215.223465 152.395676,214.917358 172.762894,209.718246 
	C193.720688,204.368347 212.779968,194.972427 226.056458,177.123230 
	C233.021973,167.758652 237.820755,157.070419 238.038559,144.918732 
	C238.130081,139.812408 238.418121,134.709610 238.352905,128.916245 
	C241.088226,121.267776 240.582153,114.156876 239.386414,106.953239 
	C245.166733,105.937790 250.566422,104.968857 255.966110,103.999924 
	C258.511566,113.565506 261.999573,122.997231 263.381470,132.728058 
	C265.451477,147.304642 264.600128,161.985550 259.643280,176.091431 
	C254.659836,190.272888 245.370667,200.994339 231.977264,209.053864 
	C226.580475,211.593948 221.817993,213.879364 217.055511,216.164780 
	C182.121124,226.641174 146.629547,226.875870 110.427979,221.976410 
	C102.925652,220.340958 95.685211,219.166367 88.828644,216.853683 
	C82.767334,214.809235 77.133682,211.496857 71.133072,208.450287 
z" />
	<path fill="#E6BB3F" opacity="1.000000" stroke="none" d="
M137.923218,159.171707 
	C129.870178,151.786774 121.723259,144.500671 113.803047,136.975937 
	C109.737160,133.113083 110.022095,131.750885 114.330902,127.743599 
	C115.776741,126.398933 117.048279,124.866844 118.706604,123.314438 
	C126.684731,120.285149 134.143036,116.364037 142.076691,114.672813 
	C153.920151,112.148125 165.774567,113.446198 176.709900,120.106163 
	C176.463364,122.727577 176.131439,124.666084 175.997177,126.618187 
	C174.778610,144.335510 167.302811,152.341293 150.840958,156.715698 
	C149.368317,156.150070 147.913284,155.403564 146.778595,155.739395 
	C143.753204,156.634827 140.865601,157.995804 137.923218,159.171707 
z" />
	<path fill="#D6A508" opacity="1.000000" stroke="none" d="
M151.004623,157.028290 
	C167.302811,152.341293 174.778610,144.335510 175.997177,126.618187 
	C176.131439,124.666084 176.463364,122.727577 176.890045,120.418541 
	C177.547653,120.335426 178.018829,120.616531 178.752838,121.264008 
	C179.366028,121.716431 179.716354,121.802475 180.066696,121.888519 
	C180.232574,121.916054 180.398468,121.943596 180.863602,122.194855 
	C181.162842,122.418564 181.537781,122.582970 181.537781,122.582970 
	C181.537781,122.582970 181.897598,122.338181 181.897598,122.338181 
	C182.438644,122.535309 182.979706,122.732430 183.809723,122.894669 
	C187.434052,125.963570 190.769424,129.067352 194.419052,132.463562 
	C180.185715,146.111221 166.259811,159.464096 150.900223,174.191666 
	C147.627045,170.298676 144.432388,166.499084 141.123047,162.038147 
	C141.681976,160.768539 142.256760,159.894501 143.047241,159.600677 
	C145.657715,158.630280 148.346130,157.869537 151.004623,157.028290 
z" />
	<path fill="#E1E5D2" opacity="1.000000" stroke="none" d="
M255.955902,103.639145 
	C250.566422,104.968857 245.166733,105.937790 239.160599,106.682953 
	C236.279099,102.996902 234.004044,99.534630 231.739471,95.921860 
	C231.749954,95.771355 231.820618,95.478012 231.820618,95.478012 
	C229.310776,86.087753 223.964447,78.455139 217.050751,71.424942 
	C233.159317,72.644180 243.456421,82.658554 251.789230,95.400917 
	C253.407028,97.874809 254.571899,100.644905 255.955902,103.639145 
z" />
	<path fill="#42384B" opacity="1.000000" stroke="none" d="
M217.323730,216.404358 
	C221.817993,213.879364 226.580475,211.593948 231.684967,209.243378 
	C233.669296,214.836258 228.553543,214.558289 225.774567,215.705978 
	C223.334152,216.713867 220.340988,216.383316 217.323730,216.404358 
z" />
	<path fill="#E6BB3F" opacity="1.000000" stroke="none" d="
M179.969116,121.664314 
	C179.716354,121.802475 179.366028,121.716431 178.994202,121.408760 
	C179.326080,121.080574 179.625687,121.164894 179.969116,121.664314 
z" />
	<path fill="#E6BB3F" opacity="1.000000" stroke="none" d="
M181.703323,122.200394 
	C181.897598,122.338181 181.537781,122.582970 181.537781,122.582970 
	C181.537781,122.582970 181.162842,122.418564 181.101044,122.279930 
	C181.039246,122.141296 181.509048,122.062607 181.703323,122.200394 
z" />
	<path fill="#2F393E" opacity="1.000000" stroke="none" d="
M57.099792,198.043777 
	C58.383152,198.789642 59.635941,199.922729 61.022053,201.340515 
	C58.511581,202.864044 57.836411,202.336258 57.099792,198.043777 
z" />
	<path fill="#2F363C" opacity="1.000000" stroke="none" d="
M97.148407,134.054321 
	C90.622803,144.714508 75.748169,144.009903 68.456566,132.627960 
	C64.563232,126.550591 63.102539,119.882469 64.104012,112.430611 
	C69.832062,110.830505 75.539085,109.236282 82.169624,107.384079 
	C77.613007,104.348442 73.569153,101.654411 69.527351,98.961746 
	C76.591675,88.857002 89.292816,88.359520 96.822083,97.933388 
	C98.735611,100.366539 99.923782,103.370140 101.096336,106.555725 
	C100.368462,107.744614 99.726608,108.464157 99.652298,109.238182 
	C99.075562,115.245926 98.643234,121.267387 98.089241,127.277512 
	C97.880127,129.546082 97.467987,131.795929 97.148407,134.054321 
z" />
	<path fill="#2D363C" opacity="1.000000" stroke="none" d="
M231.728989,96.072357 
	C234.004044,99.534630 236.279099,102.996902 238.779968,106.729462 
	C240.582153,114.156876 241.088226,121.267776 238.065674,128.619400 
	C237.673447,129.555344 237.248795,130.069778 236.944107,130.647461 
	C233.346832,137.467468 227.918625,141.969894 220.028519,141.566223 
	C211.546722,141.132294 205.994186,135.712860 203.185333,128.126907 
	C201.403625,123.315025 201.093887,117.958138 200.094925,112.692192 
	C206.801590,110.808121 212.431427,109.226562 218.849503,107.423561 
	C217.274475,106.218666 216.306442,105.478119 215.102463,104.073387 
	C213.852554,102.986740 212.838608,102.564278 211.824646,102.141815 
	C211.824646,102.141815 211.939514,102.058914 211.942291,101.722664 
	C213.537537,99.598022 214.849823,97.389557 216.777542,96.103806 
	C221.623398,92.871689 226.732529,94.377342 231.728989,96.072357 
z" />
	<path fill="#383D3D" opacity="1.000000" stroke="none" d="
M231.739471,95.921860 
	C226.732529,94.377342 221.623398,92.871689 216.777542,96.103806 
	C214.849823,97.389557 213.537537,99.598022 211.907394,101.784302 
	C210.040466,101.134903 208.211197,100.087631 206.341843,99.017395 
	C213.161926,89.841057 221.628494,88.649605 231.482727,95.345444 
	C231.820618,95.478012 231.749954,95.771355 231.739471,95.921860 
z" />
	<path fill="#313737" opacity="1.000000" stroke="none" d="
M97.372215,133.799438 
	C97.467987,131.795929 97.880127,129.546082 98.089241,127.277512 
	C98.643234,121.267387 99.075562,115.245926 99.652298,109.238182 
	C99.726608,108.464157 100.368462,107.744614 101.135010,106.930313 
	C104.310364,116.358200 104.363403,125.453194 97.372215,133.799438 
z" />
	<path fill="#DFB530" opacity="1.000000" stroke="none" d="
M150.840958,156.715698 
	C148.346130,157.869537 145.657715,158.630280 143.047241,159.600677 
	C142.256760,159.894501 141.681976,160.768539 140.972031,161.743500 
	C140.018295,161.315903 139.100906,160.521591 138.053375,159.449493 
	C140.865601,157.995804 143.753204,156.634827 146.778595,155.739395 
	C147.913284,155.403564 149.368317,156.150070 150.840958,156.715698 
z" />
	<path fill="#383D3D" opacity="1.000000" stroke="none" d="
M211.977722,102.423050 
	C212.838608,102.564278 213.852554,102.986740 214.907562,103.774231 
	C214.009338,103.660942 213.070053,103.182617 211.977722,102.423050 
z" />
</svg>